<svg width="24" height="24" viewBox="0 0 24 24" fill="none" xmlns="http://www.w3.org/2000/svg">
<path d="M11.9805 0C5.66749 0 0.489207 4.8591 8.76188e-06 11.0352L6.44224 13.6953C6.99005 13.3241 7.64758 13.1058 8.35996 13.1058C8.42233 13.1058 8.48545 13.1096 8.54782 13.1096L11.4131 8.96897V8.91047C11.4131 6.41455 13.4443 4.38736 15.9452 4.38736C18.446 4.38736 20.4809 6.4183 20.4809 8.91422C20.4809 11.4101 18.446 13.4373 15.9452 13.4373H15.8437L11.7573 16.3472C11.7573 16.402 11.761 16.453 11.761 16.5077C11.761 18.3827 10.2424 19.9021 8.36371 19.9021C6.72779 19.9021 5.34211 18.7299 5.02499 17.176L0.414812 15.2695C1.84333 20.3086 6.4738 24 11.9805 24C18.6181 24 24 18.6294 24 12.0004C24 5.37133 18.6188 0 11.9805 0ZM7.53035 18.2102L6.05449 17.6005C6.31675 18.1434 6.77063 18.5964 7.37329 18.8507C8.67256 19.3899 10.1717 18.7727 10.712 17.476C10.9743 16.843 10.9743 16.156 10.7158 15.5268C10.4573 14.8938 9.96431 14.4055 9.33384 14.1438C8.71164 13.8821 8.04209 13.8941 7.4552 14.1123L8.97765 14.7415C9.93651 15.1435 10.3904 16.2415 9.99137 17.1985C9.59234 18.1554 8.48921 18.6084 7.53035 18.2102ZM18.9668 8.90597C18.9668 7.24552 17.6126 5.89032 15.9489 5.89032C14.2777 5.89032 12.9273 7.24552 12.9273 8.90597C12.9273 10.5702 14.2777 11.9216 15.9489 11.9216C17.6126 11.9216 18.9668 10.5702 18.9668 8.90597ZM13.687 8.90222C13.687 7.64826 14.7007 6.63654 15.9534 6.63654C17.2061 6.63654 18.2273 7.64826 18.2273 8.90222C18.2273 10.1524 17.2061 11.1679 15.9534 11.1679C14.7007 11.1679 13.687 10.1524 13.687 8.90222Z" fill="white"/>
</svg>
